# xmcd CD database file
#
# Track frame offsets:
#	150
#	20332
#	46890
#	58927
#	77702
#
# Disc length: 1242 seconds
#
# Revision: 0
# Processed by: cddbd v1.4PL0 Copyright (c) Steve Scherf et al.
# Submitted via: CDex 1.40Release
#
DISCID=3704d805
DTITLE=Tommy and The Runaway Boys - Swing, Shake and Boogie
DYEAR=2002
DGENRE=Blues
TTITLE0=Rockabilly Doll
TTITLE1=Playin' With Fire
TTITLE2=Swing, Shake and Boogie
TTITLE3=Silver Surfer Shuffle
TTITLE4=Tee Ni Nee Na Nu
EXTD=YEAR: 2002 ID3G: 0
EXTT0=
EXTT1=
EXTT2=
EXTT3=
EXTT4=
PLAYORDER=
